<svg xmlns="http://www.w3.org/2000/svg" xmlns:xlink="http://www.w3.org/1999/xlink" width="102.415" height="103.293" viewBox="0 0 102.415 103.293">
  <defs>
  <filter id="colorFilter">
              <feColorMatrix
                color-interpolation-filters="sRGB"
                type="matrix"
                values="1.00 0   0   0   0
                        0   1.00  0   0   0
                        0   0   1.00  0   0
                        0   0   0   1   0 "/>
            </filter>
    <clipPath id="clip-path">
      <rect width="102.415" height="103.293" fill="none"/>
    </clipPath>



  </defs>

  <g id="house" data-name="Component 11 – 7" transform="translate(0)" clip-path="url(#clip-path)">
    <path id="Union_9" data-name="Union 9" d="M83.638,103.294a5.165,5.165,0,0,1,0-10.33,5.022,5.022,0,0,1,.878.077,6.789,6.789,0,0,1,11.9,0A4.845,4.845,0,0,1,99,93.28V24.1H80.225a1.721,1.721,0,0,1,0-3.443h20.483a1.715,1.715,0,0,1,1.707,1.721V98.129a5.15,5.15,0,0,1-5.121,5.165Zm-1.707-5.165a1.716,1.716,0,0,0,1.707,1.721H97.294A1.716,1.716,0,0,0,99,98.129a1.739,1.739,0,0,0-2.631-1.44,1.705,1.705,0,0,1-2.589-1.059,3.393,3.393,0,0,0-6.629,0,1.7,1.7,0,0,1-2.589,1.059,1.666,1.666,0,0,0-.925-.281A1.717,1.717,0,0,0,81.932,98.129ZM23.9,101.573V98.129A1.716,1.716,0,0,1,25.6,96.407H73.4a1.722,1.722,0,0,1,0,3.444H27.311v1.721a1.707,1.707,0,1,1-3.415,0Zm-17.068,0V92.791A8.605,8.605,0,0,1,0,84.356c0-.223.1-22.379,8.534-22.379s8.534,22.156,8.534,22.379a8.605,8.605,0,0,1-6.828,8.435v8.782a1.707,1.707,0,1,1-3.413,0ZM3.413,84.356a5.121,5.121,0,1,0,10.242,0c0-8.577-2.284-18.937-5.121-18.937S3.413,75.78,3.413,84.356ZM71.69,91.243V3.443H30.724v87.8a1.707,1.707,0,1,1-3.413,0V1.722A1.715,1.715,0,0,1,29.017,0H73.4A1.716,1.716,0,0,1,75.1,1.722V91.243a1.707,1.707,0,1,1-3.415,0Zm-13.655,0V75.749H44.379V91.243a1.707,1.707,0,1,1-3.413,0V75.749H35.845a1.722,1.722,0,0,1,0-3.444H66.569a1.722,1.722,0,0,1,0,3.444h-5.12V91.243a1.707,1.707,0,1,1-3.415,0ZM50,85.578a1.754,1.754,0,0,1,0-2.443,1.775,1.775,0,0,1,2.424,0,1.754,1.754,0,0,1,0,2.443,1.718,1.718,0,0,1-2.424,0Zm33.643.5a1.714,1.714,0,0,1-1.707-1.721V74.026a1.715,1.715,0,0,1,1.707-1.721h6.828a1.715,1.715,0,0,1,1.707,1.721v10.33a1.714,1.714,0,0,1-1.707,1.721Zm1.707-3.443h3.414V75.749H85.345ZM83.638,65.42A1.715,1.715,0,0,1,81.932,63.7V53.368a1.714,1.714,0,0,1,1.707-1.721h6.828a1.714,1.714,0,0,1,1.707,1.721V63.7a1.715,1.715,0,0,1-1.707,1.722Zm1.707-3.443h3.414V55.09H85.345ZM56.328,65.42A1.715,1.715,0,0,1,54.621,63.7V53.368a1.714,1.714,0,0,1,1.707-1.721h6.828a1.714,1.714,0,0,1,1.707,1.721V63.7a1.715,1.715,0,0,1-1.707,1.722Zm1.707-3.443h3.415V55.09H58.034ZM39.258,65.42A1.716,1.716,0,0,1,37.551,63.7V53.368a1.715,1.715,0,0,1,1.708-1.721h6.828a1.715,1.715,0,0,1,1.707,1.721V63.7a1.716,1.716,0,0,1-1.707,1.722Zm1.708-3.443h3.413V55.09H40.966ZM17.069,63.7V55.09H13.655v1.721a1.707,1.707,0,1,1-3.414,0V53.368a1.716,1.716,0,0,1,1.707-1.721h6.829a1.716,1.716,0,0,1,1.707,1.721V63.7a1.707,1.707,0,1,1-3.414,0ZM0,56.811V22.381a1.714,1.714,0,0,1,1.707-1.721H22.19a1.721,1.721,0,0,1,0,3.443H3.413V56.811a1.707,1.707,0,1,1-3.413,0ZM83.638,44.76a1.714,1.714,0,0,1-1.707-1.722V32.711a1.714,1.714,0,0,1,1.707-1.722h6.828a1.714,1.714,0,0,1,1.707,1.722V43.039a1.714,1.714,0,0,1-1.707,1.722Zm1.707-3.443h3.414V34.432H85.345ZM56.328,44.76a1.714,1.714,0,0,1-1.707-1.722V32.711a1.714,1.714,0,0,1,1.707-1.722h6.828a1.714,1.714,0,0,1,1.707,1.722V43.039a1.714,1.714,0,0,1-1.707,1.722Zm1.707-3.443h3.415V34.432H58.034ZM39.258,44.76a1.715,1.715,0,0,1-1.707-1.722V32.711a1.715,1.715,0,0,1,1.708-1.722h6.828a1.715,1.715,0,0,1,1.707,1.722V43.039a1.715,1.715,0,0,1-1.707,1.722Zm1.708-3.443h3.413V34.432H40.966ZM11.947,44.76a1.715,1.715,0,0,1-1.707-1.722V32.711a1.716,1.716,0,0,1,1.707-1.723h6.829a1.716,1.716,0,0,1,1.707,1.723V43.039a1.715,1.715,0,0,1-1.708,1.722Zm1.708-3.443h3.413V34.432H13.655ZM56.328,24.1a1.715,1.715,0,0,1-1.707-1.722V12.051a1.715,1.715,0,0,1,1.707-1.722h6.828a1.715,1.715,0,0,1,1.707,1.722v10.33A1.715,1.715,0,0,1,63.156,24.1Zm1.707-3.443h3.415V13.773H58.034ZM39.259,24.1a1.716,1.716,0,0,1-1.708-1.722V12.051a1.716,1.716,0,0,1,1.708-1.722h6.828a1.716,1.716,0,0,1,1.707,1.722v10.33A1.716,1.716,0,0,1,46.087,24.1Zm1.707-3.443h3.413V13.773H40.966Z" transform="translate(0 -0.001)" fill="#455a63"/>
  </g>
</svg>
